<mxfile host="app.diagrams.net" agent="Mozilla/5.0 (Windows NT 10.0; Win64; x64) AppleWebKit/537.36 (KHTML, like Gecko) Chrome/137.0.0.0 Safari/537.36" version="27.0.9">
  <diagram name="PÃ¡gina-1" id="LPzA1EdKOrGCX12UJips">
    <mxGraphModel dx="872" dy="473" grid="1" gridSize="10" guides="1" tooltips="1" connect="1" arrows="1" fold="1" page="1" pageScale="1" pageWidth="827" pageHeight="1169" math="0" shadow="0">
      <root>
        <mxCell id="0" />
        <mxCell id="1" parent="0" />
        <mxCell id="BI7qu-xGezTDBP3VlgTr-2" value="https://teams.microsoft.com/l/meetup-join/19%3ameeting_OTgxM2U2YmEtOGQwZS00OWFiLTkwYjAtOThhZTFhMGJmZTNk%40thread.v2/0?context=%7b%22Tid%22%3a%2210a76712-94f6-46a2-9155-31bd8b76f937%22%2c%22Oid%22%3a%229a28437b-7672-4e5b-8907-33dcd03e6bcb%22%7d" style="whiteSpace=wrap;html=1;aspect=fixed;" vertex="1" parent="1">
          <mxGeometry x="210" y="50" width="240" height="240" as="geometry" />
        </mxCell>
      </root>
    </mxGraphModel>
  </diagram>
</mxfile>
